<svg xmlns="http://www.w3.org/2000/svg" viewBox="0 0 154.88 274.98">
  <defs>
    <style>
      .cls-1 {
        fill: none;
        stroke: #000;
        stroke-miterlimit: 10;
        stroke-width: 2px;
      }
    </style>
  </defs>
  <g id="Calque_2" data-name="Calque 2">
    <g id="Calque_1-2" data-name="Calque 1">
      <path class="cls-1" d="M135.79,2.51S83.66,33.58,78.43,95.44a123.14,123.14,0,0,0,.41,24.47,70.36,70.36,0,0,0,20.68-3.83,69.82,69.82,0,0,0,18.13-9.45c.84-13.61,4.3-30.27,8.59-49.46,5.64-25.28,14-51.64,24.86-56,0,0-20.09-3.07-43.58,15.66,0,0-31.23,8.08-48,48,0,0-8.29,8-8.29,49.21,0,0,1.53,8.68-12.85,30.81,0,0-14.22,19-20.77,28.93C17.65,173.78-3.8,200,2,215s-4.76,19.41,33,32.68c0,0,18.39,15,47.66,24.52,0,0,24.85,4.08,33,0,0,0-33.78-27.41-25.19-35.07"/>
      <path class="cls-1" d="M78.43,95.44a231.62,231.62,0,0,1-17.2,49.35,13.53,13.53,0,0,0-1.2,7.57c2.15,16.16,1.2,88.32,84.43,121.62"/>
      <path class="cls-1" d="M72.76,166.15a8.89,8.89,0,0,1-4.18-11.25,30,30,0,0,1,6.94-10.49,18.37,18.37,0,0,1,8.67-4.63,22.57,22.57,0,0,1,11.32.68,8.8,8.8,0,0,1,3.48,2,41.66,41.66,0,0,1,6,6.65,8.88,8.88,0,0,1-.37,10.73c-2.33,2.83-6.73,6.33-15,9.85a8.75,8.75,0,0,1-5.44.45A53.57,53.57,0,0,1,72.76,166.15Z"/>
      <path class="cls-1" d="M75.52,144.41S78,155.48,86.58,155.48s10.9-14.38,10.9-14.38"/>
      <path class="cls-1" d="M84.19,139.78s3.3,17.6,9.35,11.55"/>
      <path class="cls-1" d="M106.6,170.35s3.31,3.51,6.37-22.06"/>
      <path class="cls-1" d="M120.46,175.14s-8.17,21.11,4.77,23.49"/>
    </g>
  </g>
</svg>
